<svg xmlns="http://www.w3.org/2000/svg">
  <defs>
    <symbol id="hiking-guy" viewBox="0 0 1200 1200">
        <path d="m17.48 25.453c-3.3867-0.003906-6.1445-2.7617-6.1484-6.1484 0.003907-3.3828 2.7578-6.1367 6.1406-6.1406 3.3906 0 6.1445 2.7539 6.1484 6.1406 0 3.3867-2.7539 6.1445-6.1406 6.1484zm0-9.707c-1.957 0.003906-3.5508 1.5938-3.5547 3.5508 0 1.957 1.5898 3.5508 3.5469 3.5508 1.9609 0 3.5547-1.5898 3.5547-3.5469 0.003906-1.9531-1.5898-3.5508-3.5469-3.5547zm0-4.7734c0.71484 0 1.2969-0.58203 1.2969-1.2969v-1.5586c0-0.71484-0.58203-1.2969-1.2969-1.2969-0.71484 0-1.2969 0.58203-1.2969 1.2969v1.5547c0 0.71875 0.58203 1.3008 1.2969 1.3008zm6.8125 2.8164c0.34375 0 0.67188-0.13672 0.91406-0.37891l1.1016-1.1016c0.24609-0.24609 0.37891-0.57031 0.37891-0.91406 0-0.34766-0.13672-0.67188-0.37891-0.91406-0.24609-0.24609-0.57031-0.37891-0.91406-0.37891-0.34766 0-0.67188 0.13672-0.91797 0.37891l-1.1016 1.1016c-0.50391 0.50781-0.50391 1.3281 0 1.832 0.24609 0.24219 0.57031 0.37891 0.91406 0.37891h0.003907zm4.3711 6.8125c0.71484 0 1.2969-0.58203 1.2969-1.2969 0-0.71484-0.58203-1.2969-1.2969-1.2969h-1.5547c-0.71484 0-1.2969 0.58203-1.2969 1.2969 0 0.71484 0.58203 1.2969 1.2969 1.2969zm-2.3555 7.5625c0.25-0.23828 0.39062-0.5625 0.39453-0.91016 0.007813-0.34766-0.12109-0.67578-0.36328-0.92188l-1.1328-1.1328c-0.24609-0.24609-0.57031-0.37891-0.91797-0.37891-0.34766 0-0.67187 0.13281-0.91406 0.37891-0.50391 0.50391-0.50391 1.3281 0 1.832l1.1016 1.1016c0.24609 0.25391 0.57813 0.39453 0.93359 0.39453 0.33594 0 0.65234-0.12891 0.89844-0.36328zm-7.5312 2.3242v-1.5547c0-0.71484-0.58203-1.2969-1.2969-1.2969-0.71484 0-1.2969 0.58203-1.2969 1.2969v1.5547c0 0.71484 0.58203 1.2969 1.2969 1.2969 0.71484 0 1.2969-0.58203 1.2969-1.2969zm-9.2188-1.9609c0.33984 0 0.65625-0.12891 0.90234-0.36328l1.1367-1.1367c0.51562-0.49609 0.52734-1.3203 0.03125-1.832-0.24609-0.25391-0.57812-0.39453-0.93359-0.39453-0.33984 0-0.65625 0.12891-0.89844 0.36328l-1.1367 1.1367c-0.51562 0.49609-0.52734 1.3203-0.03125 1.832 0.24219 0.25391 0.57422 0.39453 0.92969 0.39453zm-1.707-7.9258c0.71484 0 1.2969-0.58203 1.2969-1.2969 0-0.71484-0.58203-1.2969-1.2969-1.2969h-1.5547c-0.71484 0-1.2969 0.58203-1.2969 1.2969 0 0.71484 0.58203 1.2969 1.2969 1.2969zm3.7383-7.1914c0.50391-0.50391 0.50391-1.3281 0-1.832l-1.1016-1.1016c-0.24609-0.24609-0.57031-0.37891-0.91406-0.37891-0.34766 0-0.67188 0.13672-0.91406 0.37891-0.50391 0.50781-0.50391 1.3281 0 1.832l1.1016 1.1016c0.24609 0.24609 0.57031 0.37891 0.91797 0.37891 0.33984 0.003907 0.66797-0.13281 0.91016-0.37891zm60.559 16.336c-0.17578 0-0.34766-0.035156-0.50781-0.10156-3.7773-1.6055-5.9102-4.6211-5.7109-8.0625 0.16016-3.1016 2.2461-5.8281 5.1953-6.793 0.39844-0.11719 1.0469-0.25781 1.8438-0.25781 1.6875 0 4.2422 0.63672 6.8477 3.6719l0.070313 0.078125 0.09375-0.050781c0.875-0.48438 1.8672-0.73828 2.8672-0.73828 0.88672 0 1.7773 0.20312 2.5781 0.58984 2.0859 1.0273 3.4102 3.1055 3.4531 5.4297 0.035156 2.4805-1.4727 4.6992-4.1328 6.0898-0.18359 0.097657-0.39062 0.14844-0.60156 0.14844zm-0.30078-12.469c-1.9258 0.67188-3.2344 2.4219-3.3359 4.457-0.12891 2.25 1.2852 4.2227 3.8789 5.4102l0.027344 0.011719h11.398l0.03125-0.015625c1.5938-0.92188 2.4609-2.1953 2.4414-3.5898-0.039062-1.3359-0.80469-2.5352-1.9961-3.1367-0.47266-0.20703-0.96484-0.30859-1.4688-0.30859-0.90625 0-1.7812 0.33594-2.4531 0.94531-0.23438 0.17188-0.5 0.25781-0.77344 0.25781-0.41016 0-0.80469-0.19922-1.0469-0.53125-1.7578-2.3984-3.6719-3.6641-5.5391-3.6641-0.38672 0-0.77344 0.054688-1.1484 0.16797h-0.023437zm-63.977 75.898c-0.42188 0-0.81641-0.20312-1.0586-0.54688-0.41406-0.58203-0.27344-1.3945 0.30859-1.8047l15.629-10.664c0.21484-0.14844 0.46875-0.22656 0.73047-0.22656h2.3789l-0.11719-0.19531c-0.99609-1.6602-1.0625-3.6797-0.17188-5.3984l4.1172-8.0898 0.058594-8.2188-0.18359 0.085938c-0.76562 0.34766-1.5781 0.52344-2.418 0.52734-0.42188 0-0.80859-0.039062-1.1875-0.11719-3.1719-0.62891-5.2266-3.6172-4.6758-6.8008l2.2812-13.598c0.089844-0.56641 0.55078-1.0039 1.1172-1.0664l0.16797-0.019531-0.0625-0.15625c-0.082031-0.20703-0.15234-0.42188-0.20703-0.63672-0.78906-3.0156 1.0195-6.1133 4.0352-6.9062 0.47266-0.125 0.95703-0.1875 1.4375-0.1875 2.5664 0 4.8164 1.7344 5.4648 4.2227l0.050781 0.19531 0.15625-0.12891c0.56641-0.46484 1.1875-0.86328 1.8477-1.1797l0.17969-0.085937-0.15234-0.12891c-0.69141-0.59766-1.2734-1.3008-1.7305-2.0938-2.2344-3.875-0.90234-8.8477 2.9766-11.082 1.2305-0.71094 2.6328-1.0859 4.0469-1.0859 2.8945 0 5.5898 1.5547 7.0352 4.0625 1.082 1.8789 1.3711 4.0625 0.80859 6.1562s-1.9062 3.8438-3.7812 4.9258l-0.17188 0.10156 0.16016 0.11719c0.34375 0.25 0.67188 0.52734 0.97656 0.82422l5.8789 5.8125h3.3438l-2.2305-7.7578c-0.097656-0.33203-0.054687-0.68359 0.11328-0.98438 0.16797-0.30469 0.44141-0.52344 0.77734-0.61719 0.11719-0.035157 0.23828-0.050782 0.35938-0.050782 0.57422 0 1.0859 0.38672 1.2422 0.9375l2.4414 8.4883 0.09375 0.003906c1.2695 0.0625 2.4141 0.69922 3.1445 1.7383 0.62891 0.89453 0.86719 1.9805 0.67969 3.0586s-0.78516 2.0156-1.6797 2.6406l-0.074219 0.054687 6.1914 21.523h7.3086l12.5-17.027c0.24219-0.33203 0.63281-0.53125 1.043-0.53125h4.6484c0.71875 0 1.3008 0.58203 1.3008 1.2969s-0.58203 1.2969-1.2969 1.2969h-4.0117l-12.5 17.023c-0.24219 0.33203-0.63281 0.53125-1.043 0.53125h-14.609l-11.777 10.77c-0.23828 0.21875-0.55078 0.33984-0.875 0.33984h-25l-15.305 10.441c-0.21094 0.13672-0.45703 0.21094-0.71094 0.21094zm24.406-26.602c-0.003906 0.19922-0.050782 0.39844-0.14062 0.57812l-4.2539 8.3594c-0.15625 0.30859-0.25781 0.63672-0.30469 0.97656-0.10547 0.80469 0.10547 1.6055 0.59766 2.25 0.49219 0.64453 1.2109 1.0586 2.0156 1.168 0.13672 0.019531 0.27734 0.027344 0.41406 0.027344 1.1484 0 2.1836-0.63672 2.6992-1.6602l4.9922-9.7852v-6.1172l-0.10938-0.015625c-0.4375-0.070313-0.87891-0.097657-1.3438-0.12891-1.3633-0.09375-2.7734-0.1875-4.3242-1.2773l-0.20312-0.14453zm8.6133 2.2148c0 0.20313-0.046875 0.41016-0.14062 0.59375-2.6758 5.2305-3.9219 7.6797-4.5312 8.8828-0.58594 1.1523-0.58594 1.1523-0.70312 1.3516l-0.18359 0.3125h13.059l5.9609-5.4531-0.19922-0.074218c-0.85938-0.31641-1.6172-0.85938-2.1953-1.5664l-4.9023-6.0352c-1.6641-2.0508-3.4219-2.75-5.8555-3.7227l-0.30469-0.12109zm-8.2695-16.27c-0.10938 0.8125-0.21484 1.6406-0.31641 2.4883-0.13281 1.0859 0.1875 2.1914 0.875 3.0391 1.1602 1.4336 2.5781 1.5156 3.9492 1.5938 0.48828 0.027344 0.94531 0.054687 1.3984 0.13672 3.2031 0.29688 8.1328 2.4375 10.531 5.3906l4.9023 6.0352c0.03125 0.039063 0.066406 0.078125 0.097656 0.11328 0.47656 0.51953 1.1562 0.82031 1.8633 0.82031 0.63281 0 1.2383-0.23438 1.7031-0.66406 0.95312-0.87109 1.0977-2.3164 0.32812-3.3594l-5.5703-7.6016c-1.0078-1.3711-2.3555-2.4727-3.9023-3.1875l-3.7734-1.7344c-0.51953-0.23828-0.81641-0.78125-0.73828-1.3516l0.38672-2.8555-0.19141 0.054688c-2.6328 0.73047-5.3477 1.1016-8.0781 1.1016h-0.23438c-1.043 0-2.082-0.046874-3.0938-0.13281l-0.12109-0.011719zm14.051 1.1172 2.9023 1.3359c1.9453 0.89453 3.6445 2.2812 4.9102 4.0117l5.5703 7.6016c0.45312 0.62891 0.76172 1.3633 0.89062 2.1289l0.019532 0.10938h4.5234l-5.9883-20.812-12.07-0.003907zm-22.836-1.4844c-0.30859 1.8008 0.85547 3.4844 2.6445 3.8359 0.20703 0.042969 0.41797 0.0625 0.63281 0.0625 1.0234 0 1.9531-0.43359 2.5898-1.1914l0.019531-0.023437 0.007813-0.03125c0.007812-0.023438 0.007812-0.050782 0.007812-0.074219 0.15234-1.2812 0.32031-2.5586 0.51953-3.9336l0.003907-0.042969c0.51172-3.5312 1.1094-6.8008 1.7773-9.7188l0.03125-0.13281-6.1641-1.0625zm17.609-18.188c-2.8555 0-5.3828 1.9219-6.1445 4.6719-0.95312 3.625-1.7188 7.3438-2.2656 11.051l-0.019531 0.13672 0.14062 0.011719c0.86719 0.070312 1.7656 0.10156 2.668 0.10156 2.3203 0 5.7383-0.24219 8.8516-1.3945l0.074219-0.027344 0.17578-1.3047-4.0898-3.6836c-0.25781-0.23047-0.41016-0.55078-0.42578-0.89453-0.019531-0.34766 0.10156-0.67969 0.33203-0.93359 0.24609-0.27344 0.59766-0.42969 0.96484-0.42969 0.32031 0 0.62891 0.11719 0.86719 0.33594l4.2227 3.8125h0.050781c2.8047-0.011719 4.9922-0.015625 6.707-0.015625 2.6016 0 4.1055 0.011718 4.9961 0.015625 0.375 0.003906 0.64062 0.003906 0.83594 0.003906 0.47266 0 0.52734-0.011719 0.67188-0.050781l0.066406-0.019532c0.65234-0.1875 1.1055-0.78516 1.1016-1.4648-0.003906-0.83203-0.68359-1.5078-1.5156-1.5078h-6.4492c-0.34375 0-0.66797-0.13281-0.91016-0.375l-6.2578-6.1875c-1.207-1.1953-2.8047-1.8555-4.5039-1.8555zm-11.398-2.2305c-1.6914 0-3.0703 1.3789-3.0742 3.0703 0 1.6914 1.375 3.0664 3.0664 3.0703 1.6953 0 3.0703-1.375 3.0742-3.0664 0-0.82031-0.31641-1.5898-0.89844-2.1719-0.57812-0.57812-1.3516-0.89844-2.168-0.90234zm12.844-11.336c-3.0391 0.003906-5.5156 2.4805-5.5195 5.5195 0 3.043 2.4766 5.5195 5.5195 5.5195s5.5195-2.4766 5.5195-5.5195-2.4766-5.5195-5.5195-5.5195z"/>
    </symbol>
  </defs>
</svg>